<svg width="1728" height="182" viewBox="0 0 1728 182" fill="none" xmlns="http://www.w3.org/2000/svg">
<g clip-path="url(#clip0_171_311)">
<path d="M0 0L72 24.2288C144 48.9125 288 96.6875 432 115.229C576 133.088 720 121.713 864 103.171C1008 85.3125 1152 60.2875 1296 66.7713C1440 72.8 1584 109.2 1656 127.4L1728 145.6V182H1656C1584 182 1440 182 1296 182C1152 182 1008 182 864 182C720 182 576 182 432 182C288 182 144 182 72 182H0V0Z" fill="black"/>
</g>
<defs>
<clipPath id="clip0_171_311">
<rect width="1728" height="182" fill="white"/>
</clipPath>
</defs>
</svg>
