<svg width="1440" height="320" viewBox="0 0 1440 320" fill="none" xmlns="http://www.w3.org/2000/svg">
<g clip-path="url(#clip0_369_82)">
<path d="M1440 320L1392 277.3C1344 235 1248 149 1152 101.3C1056 53 960 43 864 42.7C768 43 672 53 576 74.7C480 96 384 128 288 128C192 128 96 96 48 80L0 64V0H48C96 0 192 0 288 0C384 0 480 0 576 0C672 0 768 0 864 0C960 0 1056 0 1152 0C1248 0 1344 0 1392 0H1440V320Z" fill="black"/>
</g>
<defs>
<clipPath id="clip0_369_82">
<rect width="1440" height="320" fill="white" transform="matrix(-1 0 0 1 1440 0)"/>
</clipPath>
</defs>
</svg>
